<svg width="132" height="97" viewBox="0 0 132 97" fill="none" xmlns="http://www.w3.org/2000/svg">
<path d="M115.268 0.22717C119.726 -0.223675 125.235 -0.28929 128.853 2.81437C130.776 4.4661 131.499 6.70602 131.538 9.21435C131.658 17.0201 124.053 25.3587 118.905 30.5301C109.12 40.3575 55.4631 96.4129 45.7228 96.4129C34.6125 91.7252 24.9491 78.0758 16.6249 69.3089C11.3654 64.4357 2.29108 57.7744 0.881164 50.2709C0.251006 46.9183 1.91193 44.0053 4.07393 41.5891C6.34558 39.049 8.88459 37.7928 12.3592 37.8297C22.6682 37.9414 39.701 60.1271 46.895 67.6931C70.1197 46.03 90.7447 20.3379 115.268 0.22717Z" fill="#32AB73"/>
</svg>
